<svg xmlns:xlink="http://www.w3.org/1999/xlink">

    <symbol viewBox="0 -47 512.00004 512" id="vk-icon" xmlns="http://www.w3.org/2000/svg">
        <defs>
            <g id="vk">
                <path d="m512 55.964844c-32.207031 1.484375-31.503906 1.363281-35.144531 1.667968l19.074219-54.472656s-59.539063 21.902344-74.632813 25.820313c-39.640625-35.628907-98.5625-37.203125-140.6875-11.3125-34.496094 21.207031-53.011719 57.625-46.835937 100.191406-67.136719-9.316406-123.703126-41.140625-168.363282-94.789063l-14.125-16.964843-10.554687 19.382812c-13.339844 24.492188-17.769531 52.496094-12.476563 78.851563 2.171875 10.8125 5.863282 21.125 10.976563 30.78125l-12.117188-4.695313-1.4375 20.246094c-1.457031 20.566406 5.390625 44.574219 18.320313 64.214844 3.640625 5.53125 8.328125 11.605469 14.269531 17.597656l-6.261719-.960937 7.640625 23.199218c10.042969 30.480469 30.902344 54.0625 57.972657 67.171875-27.035157 11.472657-48.875 18.792969-84.773438 30.601563l-32.84375 10.796875 30.335938 16.585937c11.566406 6.324219 52.4375 27.445313 92.820312 33.78125 89.765625 14.078125 190.832031 2.613282 258.871094-58.664062 57.308594-51.613282 76.113281-125.03125 72.207031-201.433594-.589844-11.566406 2.578125-22.605469 8.921875-31.078125 12.707031-16.964844 48.765625-66.40625 48.84375-66.519531zm-72.832031 48.550781c-10.535157 14.066406-15.8125 32.03125-14.867188 50.578125 3.941407 77.066406-17.027343 136.832031-62.328125 177.628906-52.917968 47.660156-138.273437 66.367188-234.171875 51.324219-17.367187-2.722656-35.316406-8.820313-50.171875-14.910156 30.097656-10.355469 53.339844-19.585938 90.875-37.351563l52.398438-24.800781-57.851563-3.703125c-27.710937-1.773438-50.785156-15.203125-64.96875-37.007812 7.53125-.4375 14.792969-1.65625 22.023438-3.671876l55.175781-15.367187-55.636719-13.625c-27.035156-6.621094-42.445312-22.796875-50.613281-35.203125-5.363281-8.152344-8.867188-16.503906-10.96875-24.203125 5.578125 1.496094 12.082031 2.5625 22.570312 3.601563l51.496094 5.09375-40.800781-31.828126c-29.398437-22.929687-41.179687-57.378906-32.542969-90.496093 91.75 95.164062 199.476563 88.011719 210.320313 90.527343-2.386719-23.183593-2.449219-23.238281-3.074219-25.445312-13.886719-49.089844 16.546875-74.015625 30.273438-82.453125 28.671874-17.621094 74.183593-20.277344 105.707031 8.753906 6.808593 6.265625 16.015625 8.730469 24.632812 6.589844 7.734375-1.921875 14.082031-3.957031 20.296875-6.171875l-12.9375 36.945312 16.515625.011719c-3.117187 4.179688-6.855469 9.183594-11.351562 15.183594zm0 0"/>
            </g>
        </defs>
        <use xlink:href="#vk" transform="translate(0 -47 512.00004 512)"/>
    </symbol>

    <symbol viewBox="0 0 288.861 288.861" id="fb-icon" xmlns="http://www.w3.org/2000/svg">
        <defs>
            <g id="fb">
                <path d="M167.172,288.861h-62.16V159.347H70.769v-59.48h34.242v-33.4C105.011,35.804,124.195,0,178.284,0   c19.068,0,33.066,1.787,33.651,1.864l5.739,0.746l-1.382,55.663l-6.324-0.058c-0.013,0-14.223-0.135-29.724-0.135   c-11.536,0-13.066,2.847-13.066,14.171v27.629h50.913l-2.821,59.48h-48.086v129.501H167.172z M117.858,276.007h36.453V146.5h48.677   l1.607-33.779h-50.284V72.238c0-13.368,3.078-27.025,25.919-27.025c9.178,0,17.899,0.045,23.509,0.09l0.778-31.292   c-5.675-0.508-15.116-1.157-26.247-1.157c-44.544,0-60.419,27.693-60.419,53.613v46.254H83.61V146.5h34.242v129.507H117.858z"/>
            </g>
        </defs>
        <use xlink:href="#fb" transform="translate(0 0 288.861 288.861)"/>
    </symbol>

    <symbol viewBox="0 0 49.652 49.652" id="vk-round-icon" xmlns="http://www.w3.org/2000/svg">
        <defs>
            <g id="vk-round">
                <path d="M24.826,0C11.137,0,0,11.137,0,24.826c0,13.688,11.137,24.826,24.826,24.826c13.688,0,24.826-11.138,24.826-24.826    C49.652,11.137,38.516,0,24.826,0z M35.901,19.144c0.011,0.246,0.017,0.494,0.017,0.742c0,7.551-5.746,16.255-16.259,16.255    c-3.227,0-6.231-0.943-8.759-2.565c0.447,0.053,0.902,0.08,1.363,0.08c2.678,0,5.141-0.914,7.097-2.446    c-2.5-0.046-4.611-1.698-5.338-3.969c0.348,0.066,0.707,0.103,1.074,0.103c0.521,0,1.027-0.068,1.506-0.199    c-2.614-0.524-4.583-2.833-4.583-5.603c0-0.024,0-0.049,0.001-0.072c0.77,0.427,1.651,0.685,2.587,0.714    c-1.532-1.023-2.541-2.773-2.541-4.755c0-1.048,0.281-2.03,0.773-2.874c2.817,3.458,7.029,5.732,11.777,5.972    c-0.098-0.419-0.147-0.854-0.147-1.303c0-3.155,2.558-5.714,5.713-5.714c1.644,0,3.127,0.694,4.171,1.804    c1.303-0.256,2.523-0.73,3.63-1.387c-0.43,1.335-1.333,2.454-2.516,3.162c1.157-0.138,2.261-0.444,3.282-0.899    C37.987,17.334,37.018,18.341,35.901,19.144z"/>
            </g>
        </defs>
        <use xlink:href="#vk-round" transform="translate(0 0 49.652 49.652)"/>
    </symbol>

    <symbol viewBox="0 0 96 96" id="dribble-icon" xmlns="http://www.w3.org/2000/svg">
        <defs>
            <g id="dribble">
                <path d="M49.297,47.914c0.172-0.054,0.343-0.106,0.515-0.157c-0.414-0.928-0.873-1.886-1.395-2.915   c-9.4,2.776-18.399,2.812-20.008,2.784c-0.004,0.124-0.008,0.249-0.008,0.374c0,4.728,1.698,9.271,4.79,12.835   C34.223,59.173,39.68,51.025,49.297,47.914z M60.775,33.144c-3.554-3.059-8.081-4.741-12.775-4.741   c-1.419,0-2.846,0.156-4.248,0.466c1.024,1.381,4.161,5.736,7.106,11.112C57.267,37.526,60.166,33.97,60.775,33.144z    M36.118,63.567C39.567,66.206,43.672,67.6,48,67.6c2.584,0,5.096-0.496,7.469-1.475c-0.331-1.903-1.474-7.7-4.107-14.605   C40.754,55.269,36.754,62.325,36.118,63.567z M46.524,41.325c-3.039-5.36-6.203-9.775-7.071-10.962   c-5.337,2.592-9.262,7.533-10.567,13.298h0.081C30.999,43.661,38.213,43.491,46.524,41.325z M55.566,50.487   c2.324,6.457,3.396,11.832,3.703,13.548c4.257-2.998,7.172-7.602,8.045-12.712c-0.868-0.26-4.006-1.107-7.955-1.107   C58.063,50.216,56.789,50.307,55.566,50.487z M48,0C21.489,0,0,21.49,0,48c0,26.511,21.489,48,48,48s48-21.489,48-48   C96,21.49,74.511,0,48,0z M48,71.492c-12.954,0-23.492-10.538-23.492-23.492S35.046,24.508,48,24.508S71.492,35.046,71.492,48   S60.954,71.492,48,71.492z M52.611,43.378c0.433,0.893,0.839,1.783,1.209,2.651c0.121,0.283,0.24,0.568,0.356,0.852   c1.387-0.166,2.87-0.25,4.41-0.25c4.265,0,7.818,0.627,9.001,0.862c-0.11-4.251-1.612-8.381-4.253-11.694   C62.53,36.825,59.238,40.612,52.611,43.378z"/>
            </g>
        </defs>
        <use xlink:href="#dribble" transform="translate(0 0 96 96)"/>
    </symbol>

    <symbol viewBox="0 0 49.652 49.652" id="behance-icon" xmlns="http://www.w3.org/2000/svg">
        <defs>
            <g id="behance">
                <path d="M20.894,20.686c0-1.9-1.293-1.9-1.293-1.9h-0.685h-4.634H14.28v4.078h4.991C20.134,22.864,20.894,22.589,20.894,20.686z"/>
                <path d="M33.221,22.864c-2.821,0-3.215,2.814-3.215,2.814h6.002C36.008,25.68,36.045,22.864,33.221,22.864z"/>
                <path d="M19.601,25.68h-5.318v4.886h4.711c0.08,0,0.198,0.004,0.339,0c0.757-0.019,2.196-0.235,2.196-2.374     C21.529,25.656,19.601,25.68,19.601,25.68z"/>
                <path d="M24.826,0C11.137,0,0,11.137,0,24.826c0,13.688,11.137,24.826,24.826,24.826c13.688,0,24.826-11.138,24.826-24.826     C49.652,11.137,38.516,0,24.826,0z M29.219,16.615h7.539v2.251h-7.539V16.615z M25.407,28.419c0,5.577-5.806,5.395-5.806,5.395     h-5.318h-0.156h-4.034V15.539h4.034h0.156h5.318c2.891,0,5.172,1.597,5.172,4.867c0,3.269-2.788,3.477-2.788,3.477     C25.66,23.882,25.407,28.419,25.407,28.419z M39.512,28.119h-9.471c0,3.396,3.217,3.182,3.217,3.182     c3.036,0,2.93-1.966,2.93-1.966h3.219c0,5.218-6.254,4.859-6.254,4.859c-7.503,0-7.021-6.985-7.021-6.985     s-0.007-7.022,7.021-7.022C40.549,20.187,39.51,28.119,39.512,28.119z"/>
            </g>
        </defs>
        <use xlink:href="#behance" transform="translate(0 0 49.652 49.652)"/>
    </symbol>

    <symbol viewBox="0 0 486.392 486.392" id="fb-round-icon" xmlns="http://www.w3.org/2000/svg">
        <defs>
            <g id="fb-round">
                <path
                      d="M243.196,0C108.891,0,0,108.891,0,243.196s108.891,243.196,243.196,243.196     s243.196-108.891,243.196-243.196C486.392,108.861,377.501,0,243.196,0z M306.062,243.165l-39.854,0.03l-0.03,145.917h-54.689     V243.196H175.01v-50.281l36.479-0.03l-0.061-29.609c0-41.039,11.126-65.997,59.431-65.997h40.249v50.311h-25.171     c-18.817,0-19.729,7.022-19.729,20.124l-0.061,25.171h45.234L306.062,243.165z"/>
            </g>
        </defs>
        <use xlink:href="#fb-round" transform="translate(0 0 486.392 486.392)"/>
    </symbol>

</svg>